<mxfile host="app.diagrams.net" modified="2021-04-22T12:14:34.939Z" agent="5.0 (Macintosh; Intel Mac OS X 10_15_7) AppleWebKit/605.1.15 (KHTML, like Gecko) Version/14.1 Safari/605.1.15" etag="8lo08EupcCWD7GVf2neZ" version="14.6.5" type="github">
  <diagram id="O0g5bDjhomXUzZvcDHN3" name="Page-1">
    <mxGraphModel dx="946" dy="645" grid="1" gridSize="10" guides="1" tooltips="1" connect="1" arrows="1" fold="1" page="1" pageScale="1" pageWidth="827" pageHeight="1169" math="0" shadow="0">
      <root>
        <mxCell id="0" />
        <mxCell id="1" parent="0" />
        <mxCell id="SCZmzEqTGZiyb7OTNTc3-1" value="&lt;div style=&quot;text-align: left&quot;&gt;&lt;b&gt;Signature&lt;/b&gt;&lt;/div&gt;&lt;div style=&quot;text-align: left&quot;&gt;- Timestamp&lt;/div&gt;" style="rounded=0;whiteSpace=wrap;html=1;" vertex="1" parent="1">
          <mxGeometry x="200" y="120" width="120" height="80" as="geometry" />
        </mxCell>
      </root>
    </mxGraphModel>
  </diagram>
</mxfile>
